<?xml version="1.0" standalone="no"?>
<!DOCTYPE svg PUBLIC "-//W3C//DTD SVG 20010904//EN"
 "http://www.w3.org/TR/2001/REC-SVG-20010904/DTD/svg10.dtd">
<svg version="1.0" xmlns="http://www.w3.org/2000/svg"
 width="136.000000pt" height="137.000000pt" viewBox="0 0 136.000000 137.000000"
 preserveAspectRatio="xMidYMid meet">
<metadata>
Created by potrace 1.15, written by Peter Selinger 2001-2017
</metadata>
<g transform="translate(0.000000,137.000000) scale(0.100000,-0.100000)"
fill="#000000" stroke="none">
<path d="M492 1074 c-47 -23 -168 -140 -192 -184 -6 -11 9 -35 56 -90 35 -41
70 -76 79 -78 8 -2 20 8 27 24 l13 28 6 -30 c13 -58 9 -268 -7 -376 -14 -93
-14 -112 -3 -119 8 -5 128 -9 267 -9 210 0 254 2 258 14 3 8 -2 61 -11 118
-17 104 -25 364 -11 387 5 7 16 1 32 -19 21 -24 29 -28 45 -20 10 6 19 17 19
24 0 7 23 39 50 70 28 31 50 60 50 64 0 4 -34 44 -75 89 -49 53 -93 90 -127
107 -57 28 -108 34 -108 13 0 -22 -77 -135 -100 -147 -45 -24 -99 22 -146 123
-22 46 -48 48 -122 11z m92 -77 c41 -70 88 -109 139 -114 41 -5 48 -2 86 33
23 20 54 57 68 81 13 23 31 43 37 43 21 0 88 -53 138 -109 l48 -53 -33 -38
c-29 -36 -33 -37 -49 -23 -10 9 -20 24 -23 34 -4 12 -16 19 -30 19 -21 0 -24
-6 -34 -67 -23 -154 -22 -292 6 -465 l6 -38 -212 0 -212 0 8 63 c9 71 10 341
2 437 -4 45 -11 67 -23 75 -13 8 -19 6 -27 -8 -6 -9 -20 -28 -32 -41 l-22 -24
-33 38 -33 38 57 62 c49 52 111 98 136 100 4 0 18 -19 32 -43z"/>
</g>
</svg>
