<?xml version="1.0" encoding="UTF-8" standalone="no"?>
<svg
   xmlns:osb="http://www.openswatchbook.org/uri/2009/osb"
   xmlns:dc="http://purl.org/dc/elements/1.1/"
   xmlns:cc="http://creativecommons.org/ns#"
   xmlns:rdf="http://www.w3.org/1999/02/22-rdf-syntax-ns#"
   xmlns:svg="http://www.w3.org/2000/svg"
   xmlns="http://www.w3.org/2000/svg"
   xmlns:xlink="http://www.w3.org/1999/xlink"
   xmlns:sodipodi="http://sodipodi.sourceforge.net/DTD/sodipodi-0.dtd"
   xmlns:inkscape="http://www.inkscape.org/namespaces/inkscape"
   id="svg"
   version="1.1"
   width="1686"
   height="2048"
   sodipodi:docname="im.svg"
   inkscape:version="0.92.2 5c3e80d, 2017-08-06">
  <metadata
     id="metadata9">
    <rdf:RDF>
      <cc:Work
         rdf:about="">
        <dc:format>image/svg+xml</dc:format>
        <dc:type
           rdf:resource="http://purl.org/dc/dcmitype/StillImage" />
        <dc:title />
      </cc:Work>
    </rdf:RDF>
  </metadata>
  <defs
     id="defs7">
    <linearGradient
       id="linearGradient5427"
       osb:paint="solid">
      <stop
         style="stop-color:#000000;stop-opacity:1;"
         offset="0"
         id="stop5425" />
    </linearGradient>
    <linearGradient
       id="linearGradient5403"
       osb:paint="solid">
      <stop
         style="stop-color:#000000;stop-opacity:1;"
         offset="0"
         id="stop5401" />
    </linearGradient>
    <linearGradient
       id="linearGradient5135"
       osb:paint="solid">
      <stop
         style="stop-color:#000000;stop-opacity:1;"
         offset="0"
         id="stop5133" />
    </linearGradient>
    <linearGradient
       id="linearGradient4849"
       osb:paint="solid">
      <stop
         style="stop-color:#000000;stop-opacity:1;"
         offset="0"
         id="stop4847" />
    </linearGradient>
    <linearGradient
       inkscape:collect="always"
       xlink:href="#linearGradient5403"
       id="linearGradient5405"
       x1="-50.059002"
       y1="133.24293"
       x2="417.15837"
       y2="133.24293"
       gradientUnits="userSpaceOnUse"
       gradientTransform="matrix(1.0036919,0,0,1.1145814,237.39802,275.18416)" />
  </defs>
  <sodipodi:namedview
     pagecolor="#ffffff"
     bordercolor="#666666"
     borderopacity="1"
     objecttolerance="10"
     gridtolerance="10"
     guidetolerance="10"
     inkscape:pageopacity="0"
     inkscape:pageshadow="2"
     inkscape:window-width="1440"
     inkscape:window-height="855"
     id="namedview5"
     showgrid="false"
     inkscape:snap-text-baseline="false"
     inkscape:zoom="0.29663477"
     inkscape:cx="822.91542"
     inkscape:cy="994.2479"
     inkscape:window-x="0"
     inkscape:window-y="1"
     inkscape:window-maximized="1"
     inkscape:current-layer="svg" />
  <g
     id="g5445"
     transform="matrix(2.7057248,0,0,2.8146019,-293.90825,-313.35653)">
    <g
       transform="translate(-0.29537964)"
       id="g5421">
      <circle
         id="path3700"
         cx="359.49628"
         cy="393.12967"
         r="50.440678"
         style="stroke-width:0.98941767" />
      <circle
         id="path3700-7"
         cx="485.70242"
         cy="393.12967"
         r="50.440678"
         style="stroke-width:0.98941767" />
      <path
         style="fill:#ffffff;stroke-width:1.00946927"
         id="path3725"
         sodipodi:type="arc"
         sodipodi:cx="359.49628"
         sodipodi:cy="-393.12967"
         sodipodi:rx="48"
         sodipodi:ry="48"
         sodipodi:start="0"
         sodipodi:end="6.2827692"
         d="m 407.49628,-393.12967 a 48,48 0 0 1 -47.99501,48 48,48 0 0 1 -48.00499,-47.99001 48,48 0 0 1 47.98502,-48.00999 48,48 0 0 1 48.01497,47.98003"
         sodipodi:open="true"
         transform="scale(1,-1)" />
      <path
         style="fill:#ffffff;stroke-width:1.00946927"
         id="path3725-9"
         sodipodi:type="arc"
         sodipodi:cx="485.70242"
         sodipodi:cy="393.12967"
         sodipodi:rx="48"
         sodipodi:ry="48"
         sodipodi:start="0"
         sodipodi:end="6.2827692"
         d="m 533.70242,393.12967 a 48,48 0 0 1 -47.995,48 48,48 0 0 1 -48.005,-47.99001 48,48 0 0 1 47.98502,-48.00999 48,48 0 0 1 48.01498,47.98003"
         sodipodi:open="true" />
      <path
         style="fill:none;stroke:#000000;stroke-width:1px;stroke-linecap:butt;stroke-linejoin:miter;stroke-opacity:1"
         d="M 600.18614,657.57218 C 560.73285,587.9982 639.31159,522.35586 624.95356,459.79043 588.30579,442.21678 585.298,407.39309 568.54178,323.87222 552.41584,243.56666 416.19014,132.82005 412.06744,242.56692 524.71323,220.38993 496.96446,375.26654 574.33635,427.209 l 50.61721,32.58143"
         id="path3750"
         inkscape:connector-curvature="0"
         sodipodi:nodetypes="cccccc" />
      <path
         style="fill:none;stroke:#000000;stroke-width:1px;stroke-linecap:butt;stroke-linejoin:miter;stroke-opacity:1"
         d="m 412.06744,242.56692 c 0.0878,31.07075 42.86212,18.5382 57.30699,24.92248 37.82118,16.71603 38.19972,119.25405 88.91186,156.65556 l 66.66727,35.64547"
         id="path3752"
         inkscape:connector-curvature="0"
         sodipodi:nodetypes="cscc" />
      <path
         style="fill:none;stroke:#000000;stroke-width:1px;stroke-linecap:butt;stroke-linejoin:miter;stroke-opacity:1"
         d="M 533.37023,396.86016 C 568.77098,585.95022 414.4088,536.3729 472.32199,657.59703"
         id="path3754"
         inkscape:connector-curvature="0"
         sodipodi:nodetypes="cc" />
      <path
         style="fill:none;stroke:#000000;stroke-width:1px;stroke-linecap:butt;stroke-linejoin:miter;stroke-opacity:1"
         d="M 318.00364,658.1666 C 252.28738,629.93866 232.78126,550.16475 241.39829,469.65547 l 25.28361,-91.02102 c 23.89178,-92.74165 85.81426,-209.18459 149.69478,-160.12957 -3.33413,6.96009 -3.18315,15.99794 -4.30924,24.06204 C 253.2786,207.34428 349.95781,356.78767 285.22322,419.08824 l -39.611,45.51051 -5.05672,16.85575"
         id="path3756"
         inkscape:connector-curvature="0"
         sodipodi:nodetypes="cccccccc" />
      <path
         style="fill:none;stroke:#000000;stroke-width:1px;stroke-linecap:butt;stroke-linejoin:miter;stroke-opacity:1"
         d="m 412.06744,242.56692 c -70.32385,6.53136 -85.04405,67.59824 -102.40339,136.06753 -12.96787,166.86026 64.68334,156.17391 8.33959,279.53215"
         id="path3758"
         inkscape:connector-curvature="0"
         sodipodi:nodetypes="ccc" />
      <path
         style="fill:none;stroke:#000000;stroke-width:1px;stroke-linecap:butt;stroke-linejoin:miter;stroke-opacity:1"
         d="m 406.72944,380.85624 c 13.32054,-8.84213 22.99906,-6.15124 31.58485,0"
         id="path3760"
         inkscape:connector-curvature="0"
         sodipodi:nodetypes="cc" />
      <path
         style="fill:none;stroke:#000000;stroke-width:1px;stroke-linecap:butt;stroke-linejoin:miter;stroke-opacity:1"
         d="m 247.61331,568.57753 c 2.29179,20.38158 -1.14852,71.96698 -17.37575,89.28006"
         id="path3762"
         inkscape:connector-curvature="0"
         sodipodi:nodetypes="cc" />
      <rect
         style="fill:none;stroke:url(#linearGradient5405);stroke-width:1.05768442;stroke-miterlimit:4;stroke-dasharray:none"
         id="rect5399"
         width="468.94232"
         height="468.94232"
         x="187.15421"
         y="189.22311"
         ry="0"
         rx="0" />
    </g>
    <rect
       y="173.17096"
       x="172.82275"
       height="610.24316"
       width="497.01447"
       id="rect5423"
       style="fill:none;fill-opacity:1;stroke:#000000;stroke-width:1;stroke-miterlimit:4;stroke-dasharray:none;stroke-opacity:1" />
  </g>
</svg>
