<svg id="svg" version="1.1" width="1686" height="2048" xmlns="http://www.w3.org/2000/svg" xmlns:xlink="http://www.w3.org/1999/xlink" ><g id="svgg"><path id="path0" d="M197.983 29.045 C 197.461 29.210,196.477 29.678,195.796 30.084 C 195.114 30.490,193.954 31.107,193.217 31.456 C 192.193 31.940,191.730 32.338,191.253 33.142 C 189.979 35.290,188.599 37.010,187.377 37.974 C 186.686 38.519,185.640 39.562,185.051 40.291 C 184.463 41.020,183.342 42.097,182.560 42.684 C 181.778 43.272,180.147 44.631,178.934 45.704 C 176.790 47.603,176.140 47.965,174.345 48.266 C 172.621 48.554,171.760 50.123,172.692 51.275 C 173.165 51.858,173.301 51.849,175.623 51.089 C 176.161 50.913,176.168 51.574,175.655 53.899 C 175.444 54.854,175.201 56.867,175.115 58.373 C 174.810 63.710,172.251 66.150,170.463 62.809 C 169.816 61.601,169.535 61.804,169.395 63.582 C 169.263 65.259,168.894 65.627,168.366 64.606 C 167.626 63.176,165.316 61.290,163.944 60.996 C 163.241 60.845,161.265 60.254,159.552 59.682 C 153.352 57.610,147.200 57.460,140.688 59.221 C 139.970 59.416,138.476 59.822,137.367 60.124 C 134.972 60.776,132.441 61.773,129.597 63.183 C 127.250 64.347,126.659 64.582,124.734 65.115 C 123.051 65.582,118.938 68.302,114.947 71.587 C 113.381 72.876,111.659 74.244,111.120 74.628 C 110.581 75.012,109.033 76.327,107.680 77.550 C 106.229 78.862,104.713 80.002,103.986 80.330 C 102.726 80.897,101.818 81.862,99.875 84.698 C 99.383 85.415,98.192 86.803,97.229 87.782 C 96.265 88.760,95.207 90.046,94.876 90.639 C 94.546 91.231,93.510 92.687,92.574 93.874 C 91.638 95.060,90.672 96.498,90.428 97.068 C 89.071 100.234,86.174 101.591,86.448 98.932 C 86.529 98.149,86.661 96.842,86.740 96.026 L 86.885 94.543 86.071 95.320 C 85.348 96.009,84.521 97.273,81.363 102.512 C 80.559 103.845,79.554 105.149,76.633 108.643 C 74.796 110.841,71.386 116.558,67.779 123.488 C 66.080 126.750,64.329 129.921,63.887 130.536 C 63.444 131.150,62.671 132.679,62.168 133.935 C 61.664 135.190,60.668 137.196,59.952 138.393 C 59.237 139.590,58.410 141.317,58.114 142.230 C 57.819 143.144,56.926 145.229,56.131 146.863 C 55.336 148.498,54.217 150.900,53.644 152.201 C 53.071 153.503,51.853 156.216,50.936 158.230 C 48.652 163.250,46.975 168.001,46.975 169.454 C 46.975 170.346,46.499 171.437,45.491 172.853 C 44.463 174.298,43.844 175.531,43.298 177.224 C 42.370 180.099,40.598 183.610,39.307 185.133 C 38.597 185.969,37.884 187.068,37.721 187.574 C 37.119 189.451,35.286 193.783,34.161 195.986 C 33.523 197.237,32.718 199.101,32.373 200.130 C 32.028 201.158,31.326 202.834,30.814 203.853 C 30.301 204.871,29.522 206.690,29.081 207.894 C 27.871 211.200,26.680 213.905,25.891 215.141 C 24.974 216.580,23.632 219.522,22.733 222.064 C 22.341 223.173,21.515 225.308,20.898 226.809 C 18.678 232.203,18.253 233.373,17.536 236.062 C 17.135 237.562,16.477 239.740,16.073 240.900 C 15.382 242.883,15.354 243.091,15.616 244.339 C 15.885 245.619,15.870 245.707,15.214 246.763 C 14.460 247.975,13.732 250.022,13.155 252.550 C 12.947 253.464,12.455 255.012,12.062 255.991 C 11.506 257.374,11.302 258.351,11.146 260.380 C 11.010 262.154,10.705 263.787,10.193 265.480 C 9.571 267.537,9.409 268.571,9.259 271.412 C 9.140 273.680,8.951 275.143,8.703 275.706 C 7.809 277.737,7.107 283.308,7.466 285.522 C 7.714 287.055,7.744 288.251,7.588 290.326 C 7.431 292.407,7.459 293.506,7.703 294.778 C 8.515 299.021,8.457 300.385,7.226 306.050 C 6.643 308.733,2.192 317.200,1.364 317.200 C 0.640 317.201,0.478 317.578,1.127 317.751 C 1.473 317.844,1.451 317.891,0.991 318.038 C 0.553 318.178,0.469 318.331,0.581 318.780 C 0.678 319.166,0.608 319.390,0.362 319.485 C 0.060 319.601,-0.000 320.206,0.000 323.119 L 0.000 326.614 0.938 326.924 C 2.622 327.480,2.132 331.435,0.379 331.435 C 0.061 331.435,0.044 331.512,0.280 331.891 C 0.480 332.210,0.491 332.440,0.317 332.662 C -0.006 333.075,-0.076 336.180,0.237 336.180 C 0.368 336.180,0.474 335.861,0.474 335.471 C 0.474 334.878,0.561 334.772,1.008 334.819 C 1.448 334.865,1.531 334.771,1.481 334.282 C 1.439 333.877,1.635 334.103,2.100 334.994 C 2.967 336.656,3.085 338.588,3.186 352.669 C 3.271 364.563,3.894 370.506,5.438 374.133 C 5.839 375.077,6.335 376.506,6.539 377.308 C 6.742 378.110,7.314 379.567,7.809 380.546 C 8.304 381.524,9.269 383.660,9.954 385.291 C 10.639 386.922,11.578 389.107,12.042 390.146 C 13.886 394.284,12.696 399.318,8.752 404.054 C 6.011 407.346,3.960 410.759,2.594 414.302 C 2.190 415.351,0.958 418.041,0.210 419.510 C 0.094 419.737,-0.000 421.121,0.000 422.586 L 0.000 425.249 0.669 424.448 C 1.193 423.820,1.457 423.678,1.891 423.792 C 3.039 424.092,4.033 423.226,5.556 420.600 C 7.845 416.653,8.667 415.471,10.063 414.116 C 11.409 412.811,11.576 412.535,12.068 410.795 C 12.363 409.751,12.909 408.148,13.280 407.233 C 13.651 406.318,14.030 405.143,14.121 404.623 C 14.359 403.267,16.347 399.763,16.878 399.763 C 17.994 399.763,20.570 403.288,22.574 407.556 C 23.349 409.207,24.567 411.732,25.280 413.167 C 26.429 415.478,26.577 415.943,26.575 417.230 C 26.573 418.029,26.739 419.150,26.944 419.721 C 27.149 420.292,27.521 421.705,27.771 422.860 C 28.021 424.016,28.451 425.327,28.727 425.773 C 29.245 426.612,29.076 427.284,28.347 427.284 C 27.376 427.284,26.400 429.209,25.881 432.147 C 25.743 432.930,25.468 434.154,25.270 434.868 C 25.073 435.581,24.911 436.788,24.911 437.550 C 24.911 438.565,24.626 439.781,23.843 442.099 C 23.256 443.839,22.771 445.514,22.765 445.822 C 22.707 448.697,21.387 452.007,19.185 454.795 C 17.953 456.355,17.632 458.297,18.469 459.133 C 19.009 459.674,22.539 454.273,22.539 452.905 C 22.539 452.784,23.015 452.148,23.598 451.492 C 24.181 450.835,25.194 449.505,25.848 448.535 C 26.503 447.565,27.574 446.310,28.229 445.746 C 30.184 444.064,30.568 442.672,29.270 441.977 C 28.018 441.307,28.077 440.451,29.539 438.078 C 29.861 437.556,30.397 436.421,30.731 435.555 C 31.474 433.625,32.010 433.061,32.733 433.448 C 33.399 433.804,34.162 435.076,34.163 435.831 C 34.164 436.671,34.747 437.410,35.851 437.973 C 36.908 438.513,39.504 442.181,40.957 445.189 C 41.980 447.307,41.976 448.200,40.930 451.435 C 40.476 452.840,39.934 454.893,39.726 455.998 C 39.518 457.103,38.890 459.075,38.331 460.380 C 37.772 461.684,36.972 463.980,36.552 465.480 C 36.133 466.981,35.533 468.603,35.219 469.086 C 33.588 471.592,31.410 477.958,31.909 478.764 C 32.780 480.175,35.891 477.127,37.860 472.934 C 38.468 471.640,39.486 469.487,40.123 468.150 C 40.760 466.813,41.281 465.652,41.281 465.570 C 41.281 465.488,41.612 464.769,42.017 463.972 C 42.422 463.176,42.901 461.812,43.083 460.942 C 44.952 451.975,46.430 450.920,51.246 455.112 C 53.719 457.266,54.090 457.769,58.589 465.086 C 63.309 472.761,63.415 474.115,59.632 478.352 C 58.945 479.121,58.561 480.190,58.972 480.190 C 59.389 480.190,60.078 479.587,60.830 478.562 C 63.073 475.506,67.681 477.094,68.449 481.190 C 68.725 482.663,71.731 485.166,73.436 485.342 C 74.157 485.416,74.804 485.569,74.873 485.680 C 74.942 485.792,76.373 485.884,78.054 485.884 L 81.109 485.884 80.980 485.092 C 80.884 484.496,81.066 483.836,81.715 482.432 C 82.189 481.404,82.786 479.749,83.040 478.754 C 83.892 475.415,85.805 470.775,87.223 468.605 C 88.645 466.428,89.345 465.000,90.033 462.871 C 90.265 462.153,90.962 460.445,91.581 459.075 C 92.201 457.705,93.098 455.516,93.575 454.211 C 94.052 452.906,94.806 451.038,95.251 450.059 C 95.695 449.081,96.286 447.380,96.563 446.280 C 97.223 443.658,97.543 443.087,98.901 442.112 C 99.525 441.663,100.173 440.999,100.340 440.636 C 100.985 439.238,101.779 436.482,101.780 435.639 C 101.781 434.430,102.589 429.661,103.289 426.734 C 103.607 425.405,103.994 423.695,104.149 422.933 C 104.305 422.171,104.852 420.756,105.365 419.788 C 107.108 416.498,107.287 414.800,106.130 412.505 C 105.574 411.401,105.554 411.177,105.460 404.783 C 105.337 396.440,104.987 393.385,103.852 390.747 C 103.197 389.225,103.237 384.751,103.919 383.208 C 104.572 381.732,104.520 381.305,103.628 380.831 C 102.336 380.145,101.611 379.270,101.220 377.921 C 100.847 376.635,99.459 370.923,98.918 368.446 C 98.761 367.728,98.219 366.043,97.713 364.702 C 97.207 363.360,96.695 361.599,96.575 360.787 C 96.455 359.976,96.130 358.671,95.853 357.888 C 95.576 357.106,95.263 355.504,95.159 354.330 C 94.991 352.448,94.800 351.814,93.544 348.992 C 92.761 347.230,92.040 345.522,91.941 345.196 C 91.843 344.870,91.149 343.375,90.398 341.874 C 89.647 340.374,88.843 338.559,88.611 337.841 C 88.379 337.123,87.283 334.401,86.175 331.791 C 82.728 323.671,80.681 317.245,79.826 311.862 C 79.619 310.558,79.184 308.262,78.860 306.762 C 75.660 291.950,75.482 290.191,76.971 288.042 C 78.109 286.400,78.220 282.070,77.232 277.817 C 76.887 276.327,76.852 275.556,77.020 273.072 C 77.236 269.866,77.271 263.612,77.109 256.821 C 77.028 253.400,77.085 252.243,77.396 251.008 C 77.609 250.160,77.857 248.741,77.947 247.856 C 78.276 244.631,79.454 244.474,81.409 247.394 C 84.211 251.579,89.202 257.041,91.934 258.910 C 92.716 259.446,93.998 260.404,94.781 261.039 C 95.563 261.674,96.816 262.555,97.563 262.996 C 98.311 263.438,99.646 264.355,100.529 265.034 C 103.446 267.278,106.632 268.368,111.507 268.792 C 113.138 268.934,115.059 269.207,115.777 269.398 C 117.641 269.894,118.799 269.831,120.255 269.153 C 122.225 268.236,125.390 267.398,127.503 267.234 C 128.675 267.143,130.339 266.782,131.791 266.304 C 133.096 265.874,135.481 265.245,137.092 264.905 C 141.143 264.049,142.806 263.268,147.294 260.109 C 149.433 258.604,152.051 256.896,153.112 256.312 C 156.972 254.191,159.875 251.251,160.747 248.580 C 160.972 247.893,161.980 245.996,162.987 244.365 C 165.614 240.112,167.826 235.596,168.564 232.977 C 168.914 231.738,169.661 229.603,170.225 228.233 C 172.043 223.816,172.754 217.703,171.917 213.676 C 170.757 208.086,171.301 207.139,176.688 205.379 C 183.660 203.101,187.767 203.496,195.543 207.191 C 201.915 210.219,202.587 211.192,200.744 214.729 C 199.511 217.095,199.459 217.420,199.876 220.209 C 200.075 221.536,200.239 223.377,200.241 224.300 C 200.243 225.223,200.407 226.619,200.605 227.402 C 200.804 228.185,201.060 230.374,201.176 232.266 C 201.347 235.077,201.537 236.226,202.212 238.553 C 202.666 240.119,203.116 241.934,203.211 242.586 C 203.452 244.234,204.089 245.766,205.610 248.349 C 206.327 249.568,207.213 251.225,207.579 252.032 C 207.945 252.839,208.605 253.936,209.045 254.469 C 214.085 260.574,214.124 260.613,216.726 262.220 C 217.248 262.543,218.529 263.519,219.573 264.389 C 220.724 265.349,222.498 266.494,224.081 267.298 C 225.516 268.028,227.011 268.862,227.402 269.153 C 231.038 271.856,240.620 273.674,245.670 272.619 C 246.845 272.374,248.980 272.047,250.415 271.893 C 258.279 271.049,261.372 270.486,263.644 269.488 C 268.486 267.359,269.890 266.499,271.159 264.885 C 272.385 263.325,273.312 262.597,275.919 261.150 C 276.767 260.680,278.190 259.673,279.081 258.914 C 285.402 253.525,285.409 253.526,285.409 260.152 C 285.409 265.094,285.290 265.606,283.872 266.768 C 282.595 267.815,282.408 268.928,282.783 273.243 C 283.038 276.166,282.801 281.164,282.319 283.037 C 281.736 285.301,280.656 293.756,280.698 295.730 C 280.729 297.243,280.596 298.452,280.238 299.881 C 279.961 300.991,279.565 303.072,279.359 304.508 C 279.153 305.943,278.882 307.491,278.757 307.948 C 278.631 308.405,278.210 310.608,277.821 312.843 C 277.378 315.390,276.766 317.916,276.183 319.605 C 275.024 322.957,274.165 325.834,273.675 327.995 C 272.671 332.429,268.958 341.236,266.673 344.603 C 266.319 345.125,265.638 346.299,265.160 347.212 C 264.682 348.126,263.324 350.154,262.142 351.720 C 260.961 353.286,259.556 355.314,259.020 356.228 C 258.485 357.141,257.478 358.619,256.784 359.511 C 255.046 361.744,253.863 364.219,253.628 366.114 C 253.228 369.334,250.833 372.015,244.603 376.213 C 242.893 377.365,240.957 379.268,234.899 385.746 C 233.411 387.337,231.410 389.229,230.452 389.950 C 228.340 391.540,227.371 392.643,225.936 395.091 C 225.334 396.118,224.399 397.509,223.858 398.182 C 223.318 398.856,222.382 400.101,221.778 400.949 C 221.175 401.797,220.133 403.132,219.463 403.915 C 217.318 406.422,214.128 413.273,212.946 417.912 C 212.746 418.695,212.360 419.917,212.088 420.627 C 210.633 424.420,209.532 436.590,210.271 440.716 C 210.478 441.875,210.764 444.104,210.905 445.670 C 211.046 447.236,211.377 449.531,211.639 450.771 C 211.901 452.011,212.387 454.626,212.719 456.584 C 214.647 467.953,223.993 481.510,232.673 485.530 C 233.506 485.916,235.938 486.022,235.716 485.664 C 235.556 485.403,236.431 485.079,236.755 485.279 C 236.878 485.355,237.040 485.316,237.116 485.193 C 237.202 485.055,237.544 485.053,238.015 485.188 C 239.504 485.615,239.500 485.007,238.001 483.127 C 237.261 482.198,236.357 481.050,235.992 480.577 C 235.628 480.103,234.736 479.277,234.010 478.741 C 232.578 477.683,231.891 476.500,231.753 474.852 C 231.585 472.867,233.975 474.280,235.350 476.979 C 236.302 478.847,236.999 479.458,238.395 479.645 C 239.770 479.830,239.713 479.638,237.357 476.142 C 236.242 474.488,235.021 472.399,234.643 471.498 C 234.264 470.598,233.656 469.329,233.292 468.679 C 232.927 468.029,232.254 466.383,231.795 465.020 C 230.884 462.317,230.488 461.870,230.228 463.254 C 229.974 464.609,230.312 469.875,230.753 471.450 C 231.209 473.074,231.127 473.248,230.107 472.825 C 228.311 472.081,227.607 471.084,226.372 467.535 C 225.447 464.874,224.775 463.737,222.893 461.647 C 221.856 460.496,221.183 459.476,220.755 458.405 C 219.751 455.898,218.703 454.804,217.304 454.804 C 216.850 454.804,216.809 454.716,216.953 454.033 C 217.631 450.817,217.235 449.363,215.280 447.887 C 213.901 446.845,213.993 447.048,213.056 442.978 C 212.475 440.455,212.541 439.030,213.353 436.553 L 213.853 435.028 213.214 433.222 C 212.214 430.401,212.316 429.877,214.250 427.877 C 215.488 426.597,215.879 425.530,215.890 423.408 C 215.893 422.704,216.165 421.589,216.594 420.517 C 216.978 419.558,217.407 418.349,217.546 417.831 C 217.842 416.732,219.157 414.706,220.881 412.693 C 222.484 410.821,222.796 410.183,223.020 408.320 C 223.323 405.798,226.579 399.634,228.962 397.070 C 229.951 396.006,231.368 394.264,232.112 393.198 C 234.435 389.869,235.171 389.443,237.326 390.177 C 239.054 390.766,241.903 389.291,243.445 387.009 C 243.863 386.390,244.748 385.288,245.412 384.560 C 247.287 382.504,248.916 380.410,249.791 378.931 C 250.500 377.732,252.532 374.888,254.654 372.123 C 255.055 371.601,256.306 370.107,257.435 368.802 C 258.563 367.497,260.084 365.469,260.814 364.294 C 261.544 363.120,262.787 361.412,263.576 360.498 C 265.614 358.137,265.979 356.397,264.762 354.850 C 263.820 353.652,264.110 353.116,266.251 352.100 C 268.472 351.046,269.039 350.183,269.039 347.857 C 269.039 345.425,269.560 344.519,273.101 340.792 C 274.975 338.819,275.704 337.607,277.249 333.892 C 278.503 330.879,278.578 330.417,278.158 328.315 C 277.781 326.429,278.564 320.835,279.625 317.834 C 279.817 317.290,280.346 315.527,280.800 313.917 C 281.254 312.307,282.003 310.025,282.464 308.845 C 282.925 307.666,283.675 305.140,284.131 303.232 C 284.587 301.324,285.189 299.041,285.469 298.160 C 285.925 296.725,285.948 296.413,285.694 295.180 C 285.082 292.220,285.395 290.171,286.778 288.089 C 287.727 286.658,287.815 286.103,288.251 278.766 C 288.371 276.744,288.567 274.638,288.686 274.088 C 288.804 273.537,288.866 269.160,288.822 264.361 C 288.725 253.622,289.150 245.230,290.022 240.688 C 290.416 238.640,290.617 236.762,290.622 235.098 C 290.633 231.082,292.435 229.956,293.343 233.398 C 293.889 235.470,295.789 237.748,297.924 238.892 C 298.935 239.434,300.563 240.568,301.542 241.412 C 302.521 242.256,303.885 243.346,304.574 243.834 C 305.262 244.322,306.383 245.157,307.065 245.689 C 307.746 246.221,308.837 246.962,309.490 247.335 C 313.154 249.431,314.984 250.962,315.959 252.748 C 316.555 253.838,317.836 254.804,318.687 254.804 C 318.862 254.804,319.534 255.141,320.179 255.553 C 320.824 255.965,321.993 256.564,322.776 256.884 C 324.713 257.676,325.303 258.137,326.824 260.043 C 328.367 261.977,329.055 262.380,331.289 262.661 C 334.211 263.027,340.583 266.257,343.330 268.762 C 344.225 269.578,344.990 270.035,345.907 270.301 C 347.684 270.816,350.778 272.519,353.039 274.226 C 354.069 275.004,355.453 275.820,356.114 276.039 C 356.962 276.321,357.833 276.918,359.075 278.070 C 361.363 280.191,364.940 282.049,367.309 282.347 C 370.238 282.715,372.328 284.342,373.767 287.374 C 374.657 289.249,375.154 289.724,376.653 290.129 C 378.951 290.750,379.511 291.883,380.537 297.994 C 380.873 299.992,381.235 301.233,381.872 302.576 C 382.951 304.846,382.942 306.836,381.842 309.254 C 380.957 311.200,380.979 312.422,381.931 314.292 C 383.403 317.181,383.804 320.674,382.891 322.657 C 382.195 324.169,382.085 325.990,382.553 328.233 C 382.837 329.595,382.908 330.699,382.805 332.147 C 382.531 336.005,382.452 336.331,381.423 337.864 C 380.314 339.516,380.066 341.361,379.960 348.754 C 379.906 352.556,379.802 352.953,377.909 356.580 C 377.016 358.291,376.927 358.635,376.732 361.125 C 376.477 364.398,376.363 365.179,375.788 367.620 C 375.542 368.666,375.236 370.255,375.109 371.152 C 374.936 372.376,374.706 372.996,374.190 373.639 C 373.219 374.848,372.845 375.652,372.262 377.791 C 371.981 378.821,371.330 380.796,370.817 382.180 C 370.303 383.565,369.665 385.658,369.400 386.833 C 368.249 391.932,367.588 394.033,366.725 395.333 C 366.250 396.048,365.530 397.364,365.125 398.257 C 364.720 399.151,363.928 400.469,363.365 401.186 C 362.801 401.904,361.510 403.879,360.495 405.575 C 359.480 407.272,358.413 408.980,358.124 409.371 C 357.836 409.763,357.304 410.638,356.942 411.316 C 356.580 411.994,355.760 413.169,355.120 413.926 C 354.479 414.683,353.380 416.423,352.676 417.794 C 351.846 419.412,351.012 420.659,350.298 421.352 C 349.693 421.940,348.830 423.118,348.380 423.971 C 347.785 425.099,347.136 425.876,345.999 426.818 C 345.140 427.531,344.079 428.414,343.641 428.781 C 342.543 429.702,342.437 430.203,343.145 431.135 C 343.988 432.245,344.326 434.446,344.125 437.519 C 343.995 439.515,344.041 440.319,344.344 441.361 C 344.615 442.294,344.717 443.530,344.695 445.598 C 344.658 448.936,345.209 452.095,346.265 454.592 C 347.392 457.255,348.283 460.537,348.641 463.345 C 349.295 468.471,350.767 473.564,352.070 475.208 C 352.329 475.534,353.071 476.655,353.719 477.699 C 354.382 478.766,355.436 480.056,356.128 480.645 C 356.923 481.323,357.564 482.142,357.938 482.959 C 358.256 483.654,358.615 484.223,358.736 484.223 C 358.857 484.223,358.956 484.493,358.956 484.822 C 358.956 485.538,359.688 485.887,361.166 485.876 L 362.159 485.869 361.533 485.318 C 361.189 485.015,360.836 484.538,360.747 484.259 C 360.658 483.980,359.902 483.147,359.066 482.409 C 356.920 480.513,356.874 480.318,357.434 475.416 C 357.580 474.135,357.553 474.046,356.761 473.162 C 354.961 471.154,353.796 467.564,354.218 465.328 C 354.612 463.238,354.448 462.195,353.041 457.859 L 351.839 454.152 351.839 450.822 C 351.839 448.875,351.694 446.733,351.490 445.667 C 350.995 443.081,351.027 429.681,351.530 428.867 C 351.613 428.733,351.757 427.702,351.851 426.575 C 352.060 424.049,352.575 422.967,354.561 420.878 C 355.368 420.030,356.515 418.695,357.111 417.912 C 357.707 417.129,358.541 416.168,358.964 415.777 C 359.387 415.386,360.832 413.410,362.174 411.388 C 363.517 409.365,365.355 406.635,366.260 405.321 C 367.219 403.927,368.221 402.110,368.666 400.958 C 369.084 399.872,369.879 398.323,370.432 397.515 C 370.985 396.708,371.684 395.362,371.986 394.524 C 372.288 393.687,372.936 392.409,373.425 391.685 C 374.746 389.732,375.046 389.057,375.223 387.641 C 375.314 386.919,375.707 385.761,376.123 384.991 C 377.020 383.332,376.850 382.753,375.500 382.875 C 373.764 383.030,373.457 381.250,374.614 377.737 C 375.006 376.549,375.330 375.227,375.335 374.799 C 375.346 373.705,375.770 373.061,377.101 372.115 C 378.492 371.126,378.716 371.111,379.900 371.932 C 381.323 372.918,381.671 372.496,382.874 368.327 C 383.137 367.414,383.756 365.546,384.248 364.176 C 385.045 361.961,385.140 361.461,385.103 359.668 C 385.066 357.831,385.130 357.516,385.818 356.142 C 386.967 353.850,387.314 347.417,386.279 347.618 C 385.957 347.680,385.880 348.009,385.862 349.396 C 385.831 351.718,384.441 353.390,382.938 352.912 C 381.134 352.340,382.020 348.139,384.167 347.078 C 386.731 345.810,388.038 343.361,388.719 338.553 C 388.913 337.183,389.193 335.688,389.341 335.231 C 389.489 334.775,389.694 332.426,389.797 330.012 C 389.901 327.598,390.095 325.302,390.230 324.911 C 391.407 321.481,391.892 318.855,392.069 314.947 C 392.382 308.053,392.340 299.663,391.985 298.458 C 391.813 297.871,391.579 296.483,391.465 295.374 C 390.461 285.554,389.142 281.460,386.328 279.433 C 385.251 278.657,384.898 278.054,384.664 276.594 C 384.535 275.784,384.330 275.500,383.428 274.881 C 381.277 273.406,380.387 272.395,379.118 269.980 C 377.619 267.129,376.826 266.376,374.633 265.723 C 372.528 265.096,371.587 264.082,370.825 261.619 C 369.857 258.492,368.574 256.943,366.952 256.940 C 365.756 256.939,364.566 254.979,363.710 251.601 C 363.331 250.107,362.625 249.174,361.396 248.549 C 359.268 247.466,356.590 242.762,355.185 237.639 C 354.914 236.652,353.798 233.945,352.704 231.623 C 350.340 226.605,349.812 225.224,349.233 222.544 C 348.994 221.432,348.663 219.928,348.499 219.201 C 348.243 218.069,348.257 217.655,348.598 216.296 C 349.234 213.766,348.485 210.271,346.584 206.900 C 346.185 206.193,345.612 204.645,345.309 203.460 C 345.007 202.275,344.380 199.862,343.915 198.098 C 343.203 195.396,343.079 194.557,343.125 192.760 L 343.179 190.629 341.206 186.665 C 339.435 183.109,339.199 182.475,338.909 180.497 C 338.731 179.284,338.476 177.934,338.342 177.496 C 338.155 176.887,338.182 176.471,338.461 175.717 C 339.240 173.605,339.322 173.216,339.165 172.378 C 339.075 171.901,338.435 170.421,337.741 169.089 C 337.047 167.757,336.237 165.919,335.941 165.006 C 335.645 164.093,335.151 162.842,334.843 162.227 C 334.535 161.612,334.013 160.281,333.683 159.269 C 333.353 158.258,332.859 157.053,332.585 156.592 C 331.744 155.172,331.422 153.959,331.168 151.249 C 330.962 149.056,330.753 148.213,329.849 145.928 C 329.259 144.434,328.529 142.219,328.229 141.005 C 327.753 139.082,327.540 138.635,326.582 137.548 C 325.977 136.861,325.179 135.658,324.808 134.875 C 322.266 129.508,321.116 126.818,319.938 123.488 C 318.555 119.579,318.250 118.936,317.290 117.901 C 316.982 117.568,315.890 115.593,314.865 113.512 C 313.840 111.430,312.577 109.033,312.060 108.185 C 310.542 105.696,308.791 102.285,307.924 100.129 C 307.066 97.994,306.250 96.980,304.351 95.690 C 303.185 94.898,302.400 93.537,300.549 89.098 C 299.898 87.535,299.579 87.079,298.695 86.444 C 294.951 83.755,293.654 82.010,293.135 78.964 C 292.938 77.808,290.987 74.857,289.017 72.736 C 288.142 71.794,287.052 70.501,286.595 69.863 C 286.067 69.125,285.247 68.401,284.342 67.873 C 283.514 67.390,281.727 65.858,280.071 64.211 C 278.505 62.653,276.343 60.641,275.267 59.740 C 274.190 58.839,273.310 58.015,273.310 57.909 C 273.310 57.802,272.494 57.040,271.497 56.215 C 270.499 55.391,268.899 53.988,267.940 53.099 C 264.731 50.124,260.844 47.851,254.279 45.110 C 251.331 43.880,250.197 43.003,249.407 41.345 L 248.754 39.976 246.856 39.355 C 245.813 39.013,244.158 38.301,243.179 37.771 C 239.129 35.580,237.431 35.049,234.282 34.989 C 231.081 34.927,226.729 34.248,223.013 33.231 C 221.643 32.856,219.348 32.316,217.912 32.032 C 216.477 31.748,214.288 31.263,213.049 30.954 C 210.099 30.220,206.065 29.822,203.613 30.025 C 201.769 30.178,201.596 30.151,200.766 29.590 C 199.573 28.783,199.099 28.690,197.983 29.045 M145.196 38.090 C 142.437 38.510,138.162 39.501,137.011 39.986 C 134.051 41.234,132.661 43.997,134.511 44.954 C 135.419 45.424,135.277 45.471,136.655 44.247 C 137.677 43.339,138.007 43.179,138.861 43.179 C 139.428 43.179,140.224 42.974,140.692 42.707 C 144.473 40.546,145.695 40.274,147.744 41.137 C 148.876 41.613,149.614 41.756,150.948 41.756 C 152.393 41.756,152.917 41.873,154.099 42.460 C 157.150 43.976,158.262 43.264,156.085 41.187 C 155.250 40.391,154.353 39.438,154.093 39.069 C 153.649 38.444,153.438 38.377,150.890 38.063 C 147.777 37.679,147.892 37.679,145.196 38.090 M207.409 38.612 C 207.610 38.840,208.000 39.477,208.277 40.028 C 209.098 41.661,209.816 41.823,212.974 41.086 C 215.815 40.424,230.223 40.544,232.503 41.249 C 233.351 41.511,234.846 41.835,235.824 41.969 C 243.328 42.994,245.605 44.005,248.431 47.568 C 250.140 49.723,250.010 49.637,252.904 50.528 C 256.144 51.526,261.354 54.406,263.820 56.561 C 264.798 57.416,266.181 58.574,266.892 59.134 C 267.604 59.694,268.803 61.021,269.557 62.082 C 270.311 63.143,271.644 64.636,272.519 65.399 C 273.393 66.161,275.184 67.859,276.497 69.171 C 279.310 71.983,280.212 72.501,281.626 72.120 C 283.251 71.682,286.117 74.071,288.189 77.589 C 288.533 78.171,289.889 80.106,291.204 81.889 C 294.590 86.480,298.669 92.812,299.572 94.878 C 299.994 95.846,301.003 97.821,301.813 99.267 C 302.624 100.714,304.156 103.606,305.219 105.694 C 306.281 107.782,307.850 110.771,308.704 112.337 C 309.559 113.903,311.194 116.945,312.338 119.098 C 313.482 121.251,315.067 124.134,315.861 125.504 C 317.287 127.967,317.798 128.915,322.710 138.197 C 325.341 143.169,326.120 145.246,326.926 149.438 C 327.167 150.693,327.745 152.713,328.210 153.926 C 329.602 157.557,330.447 160.144,330.944 162.300 C 331.610 165.189,333.026 170.149,333.600 171.603 C 333.934 172.448,334.160 173.827,334.321 175.996 C 334.570 179.356,334.577 179.390,336.255 185.053 C 336.854 187.076,337.457 189.425,337.596 190.273 C 337.734 191.121,337.944 192.225,338.062 192.727 C 338.179 193.228,338.219 194.403,338.149 195.337 C 338.003 197.312,338.830 201.465,339.883 204.039 C 340.674 205.974,341.670 209.154,342.444 212.218 C 342.774 213.523,343.324 215.391,343.668 216.370 C 344.232 217.976,344.278 218.357,344.138 220.285 C 343.905 223.494,344.329 226.390,345.649 230.605 C 346.283 232.628,346.922 234.788,347.069 235.406 C 347.216 236.023,347.699 237.198,348.143 238.015 C 348.586 238.833,349.133 240.356,349.358 241.400 C 349.835 243.619,350.096 244.185,351.477 245.989 C 352.812 247.734,354.621 251.326,354.814 252.613 L 354.966 253.625 353.591 254.254 C 352.697 254.663,351.584 254.939,350.407 255.042 C 348.289 255.228,348.043 255.343,348.043 256.139 C 348.043 257.720,347.085 258.054,345.547 257.009 C 345.028 256.656,343.375 255.751,341.874 254.998 C 340.374 254.245,338.031 252.826,336.668 251.844 C 335.306 250.862,334.073 250.059,333.930 250.059 C 333.447 250.059,329.769 247.662,329.409 247.112 C 328.952 246.414,329.182 245.822,329.979 245.648 C 330.323 245.573,330.757 245.464,330.943 245.405 C 332.076 245.045,333.923 245.851,335.582 247.429 C 338.794 250.483,341.000 251.776,341.343 250.806 C 341.465 250.458,339.026 248.066,336.892 246.442 C 336.174 245.896,335.152 245.060,334.620 244.584 C 334.087 244.108,332.486 242.941,331.061 241.991 C 328.231 240.104,326.948 239.075,323.772 236.146 C 322.619 235.082,321.069 233.887,320.328 233.488 C 319.587 233.089,318.648 232.518,318.242 232.218 C 314.952 229.785,314.096 229.070,313.188 227.993 C 312.618 227.316,311.392 226.279,310.465 225.689 C 309.537 225.098,308.461 224.227,308.074 223.754 C 307.687 223.281,306.722 222.200,305.929 221.352 C 305.137 220.504,304.083 219.300,303.586 218.675 C 303.002 217.940,302.185 217.289,301.268 216.826 C 299.487 215.927,298.085 214.472,296.896 212.290 C 296.385 211.352,295.421 209.992,294.754 209.267 C 293.451 207.850,292.543 206.504,290.744 203.321 C 290.118 202.212,289.306 200.931,288.941 200.474 C 288.577 200.018,288.019 199.056,287.702 198.337 C 287.288 197.396,286.445 196.336,284.690 194.548 C 282.068 191.875,281.146 190.364,281.140 188.731 C 281.136 187.589,280.653 186.752,278.694 184.500 C 275.534 180.866,272.709 176.412,272.123 174.140 C 271.971 173.553,271.600 172.644,271.297 172.120 C 270.994 171.597,270.562 170.529,270.338 169.748 C 270.002 168.579,269.685 168.089,268.547 166.977 C 267.786 166.234,266.899 165.106,266.577 164.471 C 265.706 162.751,265.385 162.558,264.495 163.216 C 262.529 164.670,260.407 162.979,261.354 160.712 C 261.867 159.484,261.689 158.273,260.679 156.109 C 260.222 155.130,259.773 153.914,259.681 153.406 C 259.590 152.898,259.049 151.617,258.480 150.559 C 256.969 147.751,256.554 146.537,256.130 143.683 C 255.840 141.730,255.419 140.272,254.355 137.525 C 253.588 135.546,252.666 132.699,252.307 131.198 C 251.948 129.698,251.458 127.802,251.220 126.986 C 250.887 125.848,250.819 125.073,250.928 123.659 C 251.057 121.987,251.013 121.701,250.453 120.596 C 249.094 117.916,248.484 114.302,249.259 113.527 C 250.388 112.398,251.491 113.569,252.273 116.726 C 252.636 118.192,253.275 119.827,254.101 121.405 L 255.370 123.830 255.394 126.506 C 255.414 128.851,255.495 129.360,256.048 130.629 C 256.395 131.427,256.785 132.928,256.916 133.972 C 257.047 135.015,257.373 136.422,257.640 137.100 C 257.927 137.828,258.126 138.882,258.126 139.673 C 258.126 141.967,259.412 143.864,260.407 143.038 C 261.631 142.022,261.718 140.499,260.647 138.837 C 260.015 137.857,259.813 137.246,259.684 135.938 C 259.594 135.026,259.273 133.552,258.970 132.662 C 258.667 131.771,258.349 130.357,258.263 129.519 C 258.177 128.681,257.854 126.767,257.545 125.267 C 256.939 122.324,256.476 118.666,256.251 115.045 C 256.125 113.022,256.034 112.674,255.428 111.879 C 254.829 111.096,254.764 110.855,254.894 109.903 C 255.021 108.981,254.939 108.634,254.344 107.581 C 253.960 106.900,253.473 105.663,253.263 104.832 C 253.053 104.001,252.564 102.549,252.176 101.604 C 251.789 100.660,251.142 98.952,250.739 97.809 C 249.637 94.685,249.057 93.734,247.286 92.149 C 246.177 91.157,245.382 90.176,244.751 89.025 C 244.246 88.102,243.402 86.830,242.876 86.200 C 242.350 85.569,241.360 84.199,240.676 83.155 C 239.060 80.692,233.760 75.569,231.124 73.924 C 230.148 73.314,224.816 71.168,220.759 69.751 C 219.715 69.386,218.488 68.929,218.031 68.735 C 217.574 68.541,215.759 68.201,213.998 67.981 C 212.236 67.760,209.568 67.362,208.068 67.097 C 204.597 66.482,198.994 66.777,195.528 67.758 C 193.934 68.209,193.197 68.049,191.946 66.978 C 190.780 65.980,190.254 66.102,189.204 67.617 C 188.870 68.099,187.906 69.104,187.062 69.850 C 183.888 72.653,186.195 74.299,190.290 72.153 C 193.944 70.237,198.281 69.734,200.928 70.920 C 202.365 71.564,202.500 71.583,203.389 71.269 C 204.565 70.854,205.245 70.849,205.794 71.250 C 206.556 71.807,205.688 72.361,204.052 72.361 C 201.558 72.361,199.383 75.169,200.542 76.893 L 201.085 77.699 203.862 77.851 C 207.478 78.048,207.544 78.069,209.296 79.598 C 210.119 80.315,210.869 80.902,210.965 80.902 C 211.244 80.902,211.862 82.251,211.862 82.859 C 211.862 84.016,210.694 84.326,209.135 83.583 C 208.429 83.246,208.126 83.224,207.289 83.448 C 206.435 83.676,206.136 83.650,205.269 83.267 C 204.708 83.019,203.854 82.748,203.371 82.663 C 201.691 82.369,201.424 82.038,201.420 80.244 C 201.415 78.034,201.571 78.117,197.746 78.284 C 193.533 78.468,192.645 78.860,192.645 80.536 C 192.645 81.471,193.183 81.692,195.020 81.511 C 196.894 81.326,197.038 81.474,196.085 82.606 C 195.266 83.579,195.161 84.204,195.578 85.610 C 195.994 87.012,195.859 87.712,194.890 89.177 C 194.363 89.973,194.211 90.520,194.119 91.958 C 194.006 93.725,193.993 93.755,193.107 94.314 C 191.091 95.587,192.530 97.231,195.449 96.988 C 196.390 96.910,196.358 97.011,196.050 95.098 C 195.723 93.068,199.085 92.757,202.532 94.498 C 206.406 96.455,206.575 98.458,202.866 98.458 C 198.888 98.458,199.979 99.560,204.270 99.876 C 205.641 99.977,207.220 100.230,207.781 100.438 C 208.341 100.646,209.355 100.888,210.034 100.974 C 210.714 101.060,211.949 101.384,212.780 101.693 C 213.611 102.001,214.579 102.254,214.930 102.254 C 215.281 102.254,216.416 102.463,217.452 102.719 C 218.488 102.974,221.097 103.570,223.250 104.043 C 229.963 105.518,232.512 107.352,233.339 111.303 C 233.765 113.338,234.518 115.031,236.659 118.759 C 239.478 123.668,239.860 124.630,239.809 126.680 C 239.760 128.635,240.493 130.482,242.338 133.050 C 243.359 134.471,244.020 136.172,244.212 137.876 C 244.296 138.614,244.623 140.215,244.940 141.435 C 245.257 142.655,245.591 144.128,245.681 144.708 C 245.772 145.288,246.045 146.340,246.288 147.046 C 246.531 147.752,246.832 149.150,246.958 150.153 C 247.084 151.157,247.308 152.293,247.455 152.679 C 247.603 153.065,247.822 154.322,247.942 155.472 C 248.188 157.830,248.338 158.200,249.604 159.587 C 250.117 160.150,250.620 161.016,250.774 161.604 C 251.509 164.407,251.854 165.387,252.694 167.066 C 253.196 168.068,253.817 169.670,254.073 170.626 C 254.329 171.581,254.756 172.843,255.022 173.430 C 256.905 177.581,254.768 179.011,248.280 177.941 C 244.472 177.313,242.370 177.324,240.503 177.981 C 239.378 178.376,238.460 178.503,236.644 178.514 L 234.261 178.529 232.967 179.631 C 231.512 180.869,229.645 181.934,226.335 183.413 C 225.095 183.967,222.746 185.186,221.115 186.121 C 219.484 187.057,217.581 188.129,216.887 188.502 C 215.448 189.275,212.918 191.938,210.913 194.788 C 205.464 202.536,203.347 204.194,201.096 202.476 C 196.064 198.634,187.971 198.013,176.796 200.612 C 170.177 202.151,170.086 202.118,168.247 197.490 C 167.384 195.316,166.518 193.178,164.963 189.377 C 164.321 187.808,163.861 187.247,161.821 185.552 C 161.131 184.978,160.214 183.964,159.784 183.298 C 158.922 181.965,157.887 180.939,155.794 179.345 C 155.033 178.766,153.993 177.972,153.483 177.580 C 150.941 175.630,143.721 172.577,139.787 171.788 C 138.517 171.534,136.680 171.100,135.703 170.824 C 134.726 170.548,133.019 170.223,131.910 170.103 C 130.801 169.983,129.263 169.668,128.492 169.403 C 126.828 168.830,125.423 168.798,123.488 169.289 C 122.705 169.487,120.142 169.739,117.794 169.848 C 114.049 170.022,113.304 170.125,111.744 170.688 C 110.115 171.276,109.771 171.318,107.683 171.184 C 104.047 170.952,98.515 173.089,92.549 177.032 C 89.474 179.064,89.168 178.169,91.296 173.372 C 92.069 171.629,93.059 169.113,93.495 167.783 C 94.057 166.068,94.589 164.965,95.322 163.998 C 95.891 163.248,96.986 161.335,97.754 159.747 C 98.523 158.160,99.828 155.864,100.654 154.646 C 101.481 153.428,102.439 151.943,102.785 151.346 C 103.130 150.748,103.847 149.972,104.377 149.621 C 105.743 148.717,106.523 147.543,108.894 142.823 C 110.040 140.540,111.492 137.977,112.120 137.129 C 112.748 136.281,113.607 134.786,114.030 133.808 C 115.441 130.539,118.241 125.513,121.024 121.255 C 122.540 118.935,124.610 115.500,125.625 113.620 C 128.207 108.835,128.744 108.079,130.368 106.946 C 131.151 106.401,134.073 103.675,136.862 100.890 C 140.796 96.961,142.243 95.669,143.317 95.127 C 145.949 93.798,147.145 92.253,145.801 91.916 C 144.830 91.672,143.530 92.284,142.202 93.612 C 141.263 94.551,140.709 94.911,140.042 95.015 C 137.830 95.361,137.404 95.594,135.993 97.221 C 135.234 98.097,133.867 99.561,132.956 100.474 C 131.697 101.738,130.991 102.729,130.007 104.616 C 128.844 106.845,128.411 107.399,125.734 110.073 C 119.444 116.357,116.591 119.804,115.905 121.945 C 115.676 122.663,115.087 124.006,114.597 124.929 C 114.107 125.853,113.570 127.027,113.404 127.539 C 112.842 129.272,111.793 131.073,110.443 132.622 C 109.704 133.470,108.509 135.285,107.787 136.655 C 107.065 138.025,106.053 139.763,105.538 140.517 C 105.022 141.271,104.294 142.570,103.920 143.403 C 103.429 144.500,102.657 145.531,101.131 147.133 C 99.848 148.481,98.668 149.998,98.118 151.008 C 97.622 151.922,96.742 153.503,96.165 154.521 C 95.587 155.540,94.806 157.173,94.430 158.151 C 94.032 159.184,93.199 160.644,92.440 161.637 C 91.711 162.591,90.311 165.021,89.269 167.141 C 88.244 169.229,86.600 172.432,85.616 174.259 C 84.424 176.473,83.478 178.642,82.780 180.765 C 81.713 184.008,78.878 190.082,78.365 190.225 C 77.393 190.495,76.817 186.810,77.459 184.437 C 77.915 182.751,77.878 181.629,77.236 177.817 C 76.506 173.479,76.488 170.349,77.188 169.395 C 78.489 167.622,78.598 167.258,78.784 164.057 C 79.602 150.011,79.929 147.811,81.369 146.653 C 83.001 145.342,83.219 142.468,82.059 137.540 C 81.486 135.108,81.618 133.351,82.582 130.548 C 82.834 129.816,83.584 127.128,84.249 124.573 C 85.537 119.629,85.620 119.412,87.202 116.845 C 87.824 115.836,88.424 114.438,88.729 113.286 C 89.437 110.618,92.332 105.761,94.383 103.804 C 95.304 102.925,96.284 101.662,96.921 100.531 C 98.384 97.933,100.301 95.874,103.321 93.655 C 104.757 92.601,106.958 90.964,108.214 90.017 C 109.469 89.070,111.032 88.024,111.687 87.692 C 112.405 87.328,113.335 86.545,114.031 85.719 C 115.551 83.913,115.890 83.625,117.462 82.808 C 119.312 81.846,120.088 81.134,121.302 79.292 C 121.881 78.414,122.609 77.576,122.921 77.429 C 123.232 77.282,124.403 76.722,125.522 76.185 C 128.107 74.943,129.516 75.093,130.286 76.690 C 130.396 76.919,130.575 77.292,130.684 77.521 C 131.098 78.387,132.986 78.793,135.824 78.626 C 139.021 78.437,138.101 78.434,145.935 78.656 C 152.890 78.853,152.597 78.878,157.177 77.680 C 160.018 76.937,160.048 76.940,160.600 78.021 C 161.585 79.953,160.949 81.045,157.688 83.015 C 154.785 84.769,153.414 86.713,154.390 87.690 C 155.454 88.754,161.392 87.085,164.161 84.944 C 164.626 84.584,165.616 84.050,166.362 83.758 C 168.899 82.762,170.241 80.752,169.539 78.999 C 168.781 77.103,169.078 76.003,170.852 74.127 C 172.402 72.488,173.139 72.415,175.024 73.713 C 177.707 75.561,179.768 74.431,178.070 72.043 C 175.605 68.577,176.361 59.229,179.413 55.426 C 180.040 54.645,180.668 53.572,180.810 53.041 C 181.802 49.322,182.541 48.121,184.412 47.179 C 185.222 46.772,186.364 46.040,186.951 45.554 C 188.088 44.611,189.339 43.892,189.846 43.890 C 190.699 43.886,192.060 43.301,192.840 42.604 C 194.330 41.271,197.739 39.621,199.014 39.615 C 200.143 39.610,203.677 38.903,204.745 38.468 C 205.702 38.079,207.002 38.149,207.409 38.612 M123.915 46.999 C 121.125 48.072,117.629 52.906,119.644 52.906 C 120.634 52.906,125.732 48.920,126.442 47.590 C 127.060 46.434,126.019 46.191,123.915 46.999 M114.944 55.666 C 112.697 57.156,112.311 57.526,111.142 59.312 C 110.586 60.160,109.469 61.708,108.660 62.752 C 107.850 63.796,106.864 65.289,106.468 66.070 C 106.073 66.851,105.344 68.132,104.849 68.917 C 104.354 69.702,103.817 70.878,103.654 71.530 C 103.492 72.183,102.997 73.378,102.555 74.186 C 101.614 75.905,101.508 77.699,102.347 77.699 C 103.162 77.699,103.741 76.562,103.897 74.658 C 104.049 72.800,104.134 72.626,105.722 70.937 C 106.274 70.350,107.241 69.049,107.871 68.045 C 109.256 65.838,112.086 62.085,113.831 60.142 C 114.535 59.359,115.578 57.918,116.151 56.940 C 117.767 54.178,117.544 53.943,114.944 55.666 M165.125 56.191 C 165.125 56.432,165.338 56.822,165.599 57.058 C 166.160 57.566,166.342 56.591,165.789 56.038 C 165.379 55.628,165.125 55.687,165.125 56.191 M160.045 64.508 C 160.579 64.751,161.487 65.507,162.062 66.189 C 162.637 66.871,163.508 67.808,163.998 68.272 C 165.347 69.551,165.040 70.477,163.151 70.828 C 162.653 70.920,161.692 71.381,161.016 71.852 C 159.960 72.588,159.619 72.702,158.600 72.661 C 157.948 72.635,155.979 72.603,154.225 72.590 C 150.606 72.563,149.851 72.353,148.446 70.985 C 147.170 69.741,144.801 69.696,142.923 70.880 C 138.889 73.423,135.798 73.387,137.758 70.820 C 138.244 70.184,138.878 69.069,139.167 68.343 C 139.738 66.908,140.668 66.193,141.963 66.193 C 142.338 66.192,143.472 65.819,144.484 65.362 C 146.709 64.357,146.625 64.359,149.385 65.243 C 150.607 65.635,151.804 65.955,152.046 65.955 C 152.287 65.955,152.885 66.227,153.375 66.559 C 155.193 67.793,156.095 67.538,156.601 65.648 C 157.064 63.915,158.034 63.595,160.045 64.508 M227.374 75.779 C 231.599 77.328,232.416 77.865,233.842 80.029 C 234.473 80.987,236.199 82.917,237.882 84.546 C 241.478 88.029,242.501 89.583,241.459 89.979 C 240.243 90.441,237.702 90.678,237.014 90.393 C 236.002 89.974,232.200 85.845,231.339 84.229 C 230.397 82.461,229.920 82.063,227.284 80.842 C 224.201 79.414,222.776 77.802,222.367 75.282 C 222.179 74.127,223.127 74.221,227.374 75.779 M126.690 78.898 C 126.234 79.091,125.209 79.963,124.413 80.835 C 123.255 82.105,122.664 82.543,121.448 83.029 C 120.055 83.585,119.929 83.694,119.929 84.344 L 119.929 85.053 121.999 84.985 C 123.887 84.922,124.902 84.717,128.487 83.673 C 129.390 83.410,129.954 83.380,130.741 83.551 C 133.865 84.233,137.393 83.756,137.558 82.631 C 137.708 81.605,136.940 81.420,133.105 81.556 L 129.583 81.681 128.962 81.059 C 128.358 80.456,128.351 80.413,128.702 79.573 C 128.900 79.097,129.063 78.668,129.063 78.619 C 129.063 78.392,127.435 78.584,126.690 78.898 M187.686 82.891 C 187.157 83.528,188.511 86.595,189.321 86.595 C 190.681 86.595,192.308 83.381,191.237 82.808 C 190.547 82.438,188.012 82.498,187.686 82.891 M204.143 86.592 C 204.481 86.721,205.262 87.294,205.878 87.866 C 207.353 89.235,208.071 89.573,210.193 89.901 C 213.479 90.408,214.989 92.010,213.543 93.456 C 212.519 94.480,212.131 94.435,207.592 92.760 C 206.014 92.178,205.369 92.050,204.626 92.172 C 200.448 92.859,199.614 92.784,198.501 91.623 C 196.904 89.956,197.248 88.799,199.765 87.367 C 201.619 86.312,202.839 86.096,204.143 86.592 M149.555 87.328 C 148.173 87.728,147.980 88.539,149.004 89.638 C 150.016 90.724,152.313 89.703,152.313 88.167 C 152.313 87.635,151.139 86.970,150.415 87.093 C 150.350 87.104,149.963 87.209,149.555 87.328 M244.648 91.756 C 246.112 93.325,246.190 95.136,244.794 95.136 C 243.916 95.136,242.348 92.109,242.826 91.336 C 243.101 90.891,244.043 91.107,244.648 91.756 M87.345 93.131 C 87.194 93.463,87.074 93.864,87.078 94.021 C 87.089 94.416,88.019 93.265,88.019 92.856 C 88.019 92.324,87.643 92.477,87.345 93.131 M247.215 98.280 C 248.466 99.132,248.839 99.843,249.080 101.842 C 249.248 103.235,249.477 103.958,250.019 104.808 C 252.076 108.031,252.736 110.342,251.782 110.973 C 250.997 111.492,250.083 110.389,248.390 106.882 C 247.632 105.312,246.673 103.601,246.259 103.081 C 244.886 101.358,244.301 100.171,244.475 99.462 C 244.732 98.417,245.280 97.746,245.878 97.746 C 246.182 97.746,246.783 97.986,247.215 98.280 M233.493 100.652 C 235.141 102.426,235.176 102.566,233.867 102.116 C 231.645 101.351,230.380 100.337,230.678 99.558 C 231.008 98.699,232.058 99.107,233.493 100.652 M243.179 100.356 C 243.760 100.937,243.767 101.112,243.236 101.769 C 242.513 102.661,240.527 101.362,240.945 100.271 C 241.161 99.707,242.585 99.762,243.179 100.356 M238.027 108.515 C 240.868 109.745,242.728 113.879,240.439 113.879 C 239.089 113.879,236.062 110.782,236.062 109.400 C 236.062 108.361,236.849 108.006,238.027 108.515 M77.602 120.120 C 77.292 120.430,77.249 120.087,77.514 119.414 C 77.679 118.995,77.688 118.995,77.773 119.420 C 77.822 119.662,77.745 119.977,77.602 120.120 M70.980 128.953 C 70.938 129.209,70.870 130.486,70.829 131.791 C 70.772 133.584,70.628 134.451,70.239 135.342 C 69.956 135.990,69.616 137.057,69.483 137.714 C 69.351 138.371,68.992 140.083,68.685 141.518 C 68.378 142.954,68.056 144.822,67.969 145.670 C 67.882 146.518,67.538 148.600,67.205 150.297 C 66.872 151.993,66.594 154.235,66.586 155.279 C 66.560 159.111,66.848 168.895,67.083 172.123 C 67.268 174.681,67.292 182.531,67.123 185.528 C 67.112 185.724,67.176 187.432,67.265 189.324 C 67.409 192.385,67.369 193.012,66.905 195.018 C 66.567 196.476,66.341 198.402,66.265 200.474 C 66.174 202.936,66.015 204.106,65.576 205.528 C 65.161 206.877,65.005 207.939,65.004 209.443 C 64.999 215.256,63.109 222.245,60.377 226.555 C 59.650 227.702,58.638 229.736,58.127 231.075 C 57.029 233.956,56.102 235.558,54.330 237.633 C 50.716 241.864,49.306 244.026,48.676 246.299 C 47.847 249.287,45.253 253.040,42.139 255.753 C 40.552 257.137,38.001 259.980,36.370 262.185 C 35.828 262.916,34.755 264.037,33.985 264.676 C 33.215 265.314,32.059 266.509,31.417 267.331 C 30.775 268.154,29.528 269.470,28.647 270.257 C 27.765 271.043,26.758 272.185,26.408 272.795 C 25.005 275.239,24.401 275.900,22.013 277.604 C 18.834 279.871,17.732 280.906,16.718 282.575 C 14.749 285.816,13.110 286.292,12.674 283.749 C 12.528 282.900,12.168 281.512,11.873 280.664 C 11.214 278.771,11.307 277.193,12.316 273.110 C 13.869 266.827,14.265 265.257,14.829 263.141 C 15.155 261.920,15.421 260.494,15.421 259.972 C 15.421 259.451,15.584 258.395,15.783 257.626 C 16.108 256.375,16.108 256.082,15.786 254.839 C 15.424 253.442,15.678 251.673,16.582 249.295 C 16.702 248.981,16.874 248.090,16.965 247.316 C 17.057 246.541,17.328 245.564,17.568 245.144 C 18.000 244.390,20.102 238.312,21.115 234.888 C 21.402 233.917,22.105 232.257,22.677 231.199 C 23.324 230.002,23.974 228.295,24.399 226.678 C 25.104 223.994,25.907 221.630,26.813 219.573 C 27.100 218.921,27.582 217.673,27.883 216.801 C 28.262 215.704,28.833 214.741,29.737 213.675 C 30.685 212.558,31.152 211.755,31.436 210.753 C 32.463 207.133,33.615 203.952,34.642 201.898 C 35.262 200.658,36.050 198.975,36.395 198.157 C 36.739 197.339,37.344 196.143,37.740 195.500 C 38.137 194.856,38.942 193.125,39.529 191.654 C 40.842 188.365,41.238 187.713,42.590 186.605 C 43.175 186.125,43.773 185.511,43.918 185.241 C 44.332 184.467,47.577 174.879,47.916 173.428 C 48.084 172.711,49.631 169.241,51.355 165.718 C 53.078 162.195,54.792 158.511,55.164 157.533 C 55.535 156.554,56.208 155.124,56.658 154.354 C 57.109 153.585,58.004 151.823,58.648 150.440 C 59.292 149.056,60.336 146.856,60.967 145.552 C 63.071 141.205,64.034 138.921,64.315 137.611 C 64.468 136.897,64.789 135.855,65.029 135.296 C 66.451 131.979,71.337 126.771,70.980 128.953 M260.917 149.644 C 259.740 150.979,261.758 157.295,263.361 157.295 C 263.912 157.295,264.177 155.776,263.843 154.534 C 263.708 154.030,263.493 152.884,263.366 151.987 C 263.037 149.660,261.880 148.553,260.917 149.644 M260.667 173.725 C 261.608 174.953,262.423 178.798,261.794 179.040 C 260.941 179.367,259.549 176.559,259.549 174.510 C 259.549 173.439,260.134 173.028,260.667 173.725 M134.045 173.883 C 138.639 174.241,147.093 177.296,149.429 179.443 C 150.169 180.124,151.267 181.020,151.869 181.434 C 154.817 183.462,158.464 188.864,158.477 191.222 C 158.484 192.476,159.055 193.525,160.322 194.610 C 163.865 197.647,166.115 202.271,166.173 206.634 C 166.194 208.248,166.330 208.977,166.839 210.218 C 168.438 214.120,168.907 220.008,167.923 223.854 C 166.948 227.671,163.683 235.497,161.694 238.790 C 160.747 240.356,159.346 242.783,158.579 244.185 C 155.291 250.195,151.058 253.795,145.280 255.497 C 142.796 256.228,138.725 258.249,137.320 259.448 C 136.077 260.510,135.767 260.613,133.180 260.835 C 132.378 260.904,130.296 261.386,128.554 261.907 C 123.215 263.503,121.537 263.602,116.808 262.602 C 115.613 262.350,113.571 262.050,112.270 261.937 C 109.560 261.702,109.228 261.564,107.815 260.090 C 106.668 258.892,107.169 258.962,103.262 259.454 C 101.933 259.621,100.993 259.047,100.444 257.733 C 100.215 257.185,99.773 256.772,98.990 256.374 C 98.371 256.060,97.308 255.428,96.628 254.970 C 95.948 254.512,94.827 253.952,94.137 253.726 C 90.816 252.638,88.926 251.274,88.081 249.356 C 87.764 248.634,87.083 247.496,86.569 246.827 C 86.055 246.158,85.307 244.930,84.908 244.098 C 84.496 243.242,83.727 242.165,83.134 241.615 C 82.177 240.728,82.088 240.547,82.088 239.507 C 82.088 238.422,82.021 238.306,80.666 237.037 C 78.435 234.948,77.746 232.319,78.792 229.886 C 79.160 229.030,79.255 228.455,79.151 227.707 C 78.836 225.429,78.602 218.584,78.786 216.999 C 78.894 216.066,78.987 214.546,78.993 213.620 C 78.999 212.695,79.205 211.147,79.451 210.180 C 79.697 209.213,80.078 207.270,80.297 205.862 C 80.695 203.310,81.223 201.442,81.937 200.061 C 82.144 199.661,82.435 198.550,82.583 197.591 C 82.879 195.680,83.362 194.563,84.668 192.770 C 85.141 192.121,85.852 191.053,86.248 190.398 C 88.101 187.332,90.110 185.335,93.120 183.567 C 94.686 182.647,96.874 181.231,97.983 180.419 C 101.825 177.609,103.616 176.726,105.981 176.476 C 107.128 176.355,108.974 175.998,110.083 175.681 C 111.192 175.365,112.847 174.986,113.760 174.839 C 114.674 174.691,115.948 174.420,116.591 174.237 C 118.134 173.796,119.468 173.815,120.882 174.297 C 121.962 174.665,122.238 174.664,125.017 174.291 C 127.654 173.937,128.681 173.838,130.961 173.720 C 131.287 173.703,132.675 173.777,134.045 173.883 M272.126 182.211 C 272.415 182.752,272.259 183.155,271.762 183.155 C 271.364 183.155,270.855 182.294,271.059 181.964 C 271.299 181.575,271.854 181.704,272.126 182.211 M254.496 182.543 C 256.152 183.062,257.020 183.844,258.526 186.180 C 259.223 187.260,260.298 188.772,260.917 189.540 C 261.735 190.558,262.647 192.311,264.276 196.002 C 266.085 200.103,266.948 201.722,268.806 204.508 C 271.695 208.837,271.609 208.665,272.008 210.930 C 272.379 213.044,272.783 213.746,274.377 215.053 C 274.976 215.543,276.114 216.908,276.906 218.087 C 278.274 220.121,278.429 220.266,279.973 220.952 C 281.949 221.830,282.277 222.385,282.568 225.346 C 282.680 226.491,283.075 228.295,283.460 229.419 C 284.038 231.110,284.176 231.981,284.316 234.823 L 284.482 238.212 282.904 242.178 C 278.929 252.170,274.813 257.996,269.788 260.743 C 268.528 261.432,266.827 262.467,266.008 263.043 C 262.638 265.412,254.289 267.616,248.677 267.616 C 246.395 267.616,245.274 267.729,244.034 268.083 C 243.135 268.340,242.318 268.501,242.219 268.439 C 242.121 268.378,240.988 268.235,239.703 268.121 C 237.304 267.909,236.279 267.519,231.781 265.106 C 230.728 264.542,230.673 264.537,229.453 264.899 C 227.941 265.348,227.134 265.146,225.523 263.916 C 224.927 263.461,223.606 262.577,222.587 261.952 C 219.745 260.207,216.444 257.283,215.724 255.872 C 215.391 255.219,214.324 253.481,213.352 252.008 C 211.287 248.877,210.022 246.269,209.126 243.298 C 208.772 242.123,208.164 240.362,207.774 239.383 C 207.267 238.109,207.012 236.964,206.878 235.350 C 206.744 233.735,206.490 232.592,205.982 231.317 C 202.750 223.207,205.040 209.179,210.660 202.656 C 211.525 201.652,212.972 199.923,213.875 198.814 C 220.422 190.774,224.343 187.683,230.880 185.408 C 232.211 184.944,234.108 184.119,235.096 183.573 L 236.892 182.580 241.839 182.409 C 244.559 182.315,246.855 182.166,246.940 182.078 C 247.230 181.776,253.226 182.146,254.496 182.543 M291.657 211.636 C 292.585 212.367,294.905 215.987,295.062 216.949 C 295.247 218.094,294.411 218.132,293.460 217.023 C 293.097 216.598,292.322 215.700,291.739 215.026 C 289.775 212.757,289.711 210.106,291.657 211.636 M73.836 219.498 C 73.473 219.860,73.206 219.593,73.407 219.069 C 73.525 218.760,73.628 218.729,73.839 218.940 C 74.050 219.151,74.049 219.284,73.836 219.498 M299.254 222.586 C 299.394 222.809,299.427 223.072,299.328 223.171 C 299.075 223.424,298.356 222.928,298.258 222.432 C 298.154 221.903,298.896 222.018,299.254 222.586 M73.065 224.072 C 73.251 224.296,73.311 224.903,73.236 225.792 C 72.770 231.251,72.588 233.013,72.376 234.106 C 72.127 235.393,72.332 238.650,72.849 241.617 C 73.044 242.739,73.035 243.564,72.809 244.980 C 72.622 246.156,72.498 249.645,72.476 254.330 C 72.444 261.343,72.410 261.889,71.931 263.191 C 71.450 264.499,71.419 265.025,71.394 272.207 C 71.379 276.449,71.253 280.486,71.111 281.302 C 70.923 282.386,70.930 283.193,71.138 284.386 C 71.460 286.234,71.811 290.237,72.133 295.730 C 72.605 303.800,72.803 305.672,73.385 307.592 C 73.701 308.636,74.036 309.970,74.129 310.558 C 74.222 311.145,74.714 313.120,75.223 314.947 C 75.731 316.773,76.306 319.015,76.500 319.929 C 77.125 322.879,77.961 325.593,78.848 327.558 C 79.325 328.614,79.715 329.645,79.715 329.848 C 79.715 330.926,81.327 336.201,82.652 339.458 C 83.485 341.505,84.241 343.553,84.333 344.009 C 84.722 345.944,86.665 352.417,87.681 355.160 C 88.285 356.791,89.079 359.300,89.447 360.735 C 90.789 365.980,91.166 367.166,91.899 368.441 C 92.938 370.250,93.005 370.456,93.252 372.615 C 93.373 373.668,93.909 376.013,94.444 377.825 C 95.296 380.711,95.422 381.444,95.462 383.739 C 95.504 386.144,95.570 386.491,96.272 387.988 C 97.323 390.230,97.934 393.434,98.248 398.348 L 98.513 402.509 97.881 404.089 L 97.249 405.669 97.794 406.690 C 98.332 407.696,98.339 407.820,98.337 415.658 L 98.335 423.606 97.348 425.860 C 96.308 428.236,95.489 430.819,94.713 434.170 C 94.455 435.283,93.687 437.418,93.005 438.915 C 92.324 440.412,91.518 442.438,91.213 443.416 C 89.010 450.497,85.923 458.514,84.798 460.080 C 84.304 460.767,83.318 462.169,82.607 463.195 L 81.313 465.062 81.465 466.696 C 81.589 468.029,81.525 468.580,81.118 469.693 C 80.843 470.442,80.326 471.963,79.969 473.072 C 78.813 476.658,77.919 477.905,76.897 477.358 C 76.409 477.097,75.682 475.499,75.682 474.688 C 75.682 474.019,75.026 473.311,74.400 473.304 C 70.751 473.266,68.913 468.534,71.183 465.022 C 72.543 462.917,72.974 461.994,73.635 459.765 C 75.280 454.222,76.002 452.001,76.734 450.225 C 77.176 449.155,77.721 447.639,77.945 446.856 C 78.170 446.074,78.859 444.419,79.476 443.179 C 80.093 441.940,80.787 440.338,81.019 439.620 C 81.857 437.025,82.561 436.074,84.630 434.740 C 86.542 433.508,88.256 430.096,88.256 427.522 C 88.256 426.127,88.568 425.232,89.334 424.428 C 89.704 424.041,90.082 423.128,90.397 421.863 C 90.666 420.782,91.255 418.878,91.706 417.631 C 92.817 414.564,92.794 414.176,91.451 413.229 C 90.358 412.459,90.292 412.329,90.044 410.439 C 89.967 409.852,89.735 408.857,89.530 408.228 C 89.324 407.599,89.213 406.798,89.283 406.449 C 89.391 405.911,89.011 402.879,88.601 401.008 C 88.413 400.146,87.862 400.386,86.833 401.779 C 86.303 402.497,85.774 403.084,85.658 403.084 C 85.082 403.084,84.615 402.672,83.642 401.310 C 82.579 399.820,82.203 399.526,81.365 399.526 C 80.453 399.526,80.304 400.344,80.417 404.745 C 80.476 407.028,80.522 411.074,80.520 413.734 L 80.516 418.572 79.913 419.072 C 79.581 419.348,79.125 419.680,78.899 419.811 C 78.221 420.206,78.020 422.043,78.412 424.264 C 78.885 426.936,78.852 428.413,78.276 430.430 C 77.957 431.543,77.710 433.399,77.572 435.706 C 77.422 438.213,77.215 439.681,76.874 440.673 C 76.607 441.448,76.323 442.836,76.243 443.757 C 75.604 451.093,68.677 464.838,65.975 464.131 C 64.281 463.688,58.242 455.567,55.503 450.049 C 54.626 448.281,53.353 446.146,52.674 445.304 C 50.232 442.271,49.901 439.774,51.528 436.634 C 52.007 435.710,52.572 434.283,52.785 433.463 C 52.997 432.644,53.386 431.399,53.648 430.697 C 54.275 429.021,55.732 422.184,55.740 420.878 C 55.746 420.007,54.427 422.180,53.730 424.188 C 53.434 425.043,52.929 426.329,52.609 427.046 C 52.288 427.764,51.838 428.938,51.609 429.656 C 50.938 431.759,49.093 435.780,48.735 435.918 C 47.901 436.238,47.742 433.844,48.296 429.300 C 48.380 428.608,48.326 427.819,48.167 427.405 L 47.893 426.696 47.453 427.279 C 47.211 427.599,46.779 428.651,46.492 429.617 C 45.455 433.112,44.022 433.045,42.951 429.449 C 42.531 428.039,42.327 427.698,41.713 427.380 C 40.074 426.533,38.644 424.135,38.245 421.564 C 38.094 420.592,37.709 419.478,37.232 418.633 C 36.475 417.291,36.467 417.247,36.737 415.784 C 36.887 414.967,37.011 413.907,37.011 413.429 C 37.011 412.220,37.548 411.056,38.398 410.428 C 39.116 409.897,39.447 409.285,39.736 407.948 C 39.820 407.556,40.250 406.862,40.690 406.406 C 42.073 404.971,42.219 404.496,41.839 402.662 C 41.262 399.870,40.477 399.321,38.498 400.323 C 36.697 401.236,36.648 401.346,37.010 403.671 C 37.251 405.221,37.259 405.965,37.047 407.023 C 36.896 407.771,36.773 408.692,36.773 409.070 C 36.773 409.665,36.304 410.902,35.277 413.016 C 34.672 414.259,33.332 414.142,32.098 412.736 C 31.265 411.787,30.991 411.061,30.508 408.513 C 30.257 407.187,29.785 405.986,28.737 404.005 C 27.951 402.520,26.970 400.344,26.557 399.170 C 25.735 396.833,24.841 394.953,23.713 393.193 C 23.002 392.082,22.986 391.999,23.132 390.036 C 23.347 387.142,22.737 385.230,21.196 383.968 C 19.087 382.240,17.589 377.759,17.564 373.105 C 17.553 371.022,16.481 366.905,15.549 365.362 C 14.564 363.732,13.689 359.777,13.903 357.920 C 14.026 356.854,13.939 356.486,13.210 354.971 C 12.670 353.849,12.247 352.472,12.008 351.057 C 10.737 343.523,10.647 342.713,10.413 336.655 C 9.922 323.982,10.302 314.418,11.408 311.593 C 11.554 311.219,11.883 310.166,12.139 309.253 C 12.395 308.339,12.864 307.146,13.182 306.601 C 13.935 305.310,13.911 304.864,13.049 304.107 C 12.062 303.241,12.116 302.539,13.487 298.449 C 16.933 288.170,20.102 282.909,23.431 281.941 C 24.373 281.667,25.119 281.226,25.966 280.443 C 26.625 279.832,27.608 278.991,28.149 278.574 C 28.690 278.157,29.859 276.792,30.746 275.540 C 31.633 274.289,32.845 272.880,33.439 272.410 C 35.473 270.802,36.069 270.132,36.324 269.166 C 37.044 266.450,40.764 261.210,41.974 261.210 C 42.646 261.210,42.585 261.553,41.357 264.687 C 40.405 267.120,40.405 268.090,41.360 268.090 C 42.294 268.090,44.062 265.597,44.726 263.345 C 45.055 262.229,45.989 260.588,48.107 257.400 C 49.272 255.646,50.621 253.496,51.105 252.623 C 52.176 250.687,53.177 249.770,54.678 249.350 C 56.203 248.923,57.087 247.981,58.605 245.164 C 59.324 243.830,60.408 242.256,61.125 241.504 C 63.354 239.167,64.210 236.271,62.888 235.539 C 62.016 235.056,61.939 234.339,62.616 233.011 C 63.685 230.917,64.420 231.138,64.189 233.483 C 64.004 235.361,64.126 235.450,65.747 234.623 C 66.726 234.124,66.969 233.729,67.948 231.039 C 68.397 229.807,71.180 225.091,71.950 224.259 C 72.529 223.632,72.679 223.607,73.065 224.072 M309.366 230.837 C 310.714 232.185,311.013 232.811,310.152 232.484 C 308.518 231.863,306.539 229.971,306.904 229.380 C 307.092 229.076,308.348 229.819,309.366 230.837 M357.855 254.068 C 359.512 255.161,360.015 257.651,358.578 257.651 C 357.741 257.651,354.957 254.376,355.309 253.806 C 355.528 253.451,357.177 253.621,357.855 254.068 M337.152 256.770 C 338.017 257.353,338.357 258.126,337.748 258.126 C 337.343 258.126,335.706 256.775,335.706 256.440 C 335.706 256.070,336.320 256.210,337.152 256.770 M61.777 319.437 C 61.591 319.921,62.502 321.858,63.054 322.154 C 64.103 322.715,64.124 321.122,63.083 319.937 C 62.286 319.028,61.979 318.911,61.777 319.437 M0.028 328.979 C 0.046 329.808,0.157 330.486,0.274 330.486 C 0.617 330.486,0.988 329.250,0.831 328.627 C 0.719 328.179,0.766 328.084,1.048 328.192 C 1.246 328.268,1.457 328.252,1.516 328.156 C 1.576 328.060,1.258 327.867,0.810 327.726 L -0.004 327.472 0.028 328.979 M-0.000 340.657 C -0.000 341.211,0.094 341.607,0.209 341.536 C 0.590 341.300,0.650 340.538,0.323 340.090 C 0.032 339.692,-0.000 339.748,-0.000 340.657 M0.024 344.781 C 0.011 345.400,0.107 345.907,0.237 345.907 C 0.512 345.907,0.512 345.104,0.237 344.247 C 0.082 343.763,0.043 343.862,0.024 344.781 M70.663 345.063 C 69.990 346.540,73.238 352.395,74.024 351.123 C 74.476 350.391,72.741 345.489,71.795 344.826 C 71.127 344.359,70.969 344.392,70.663 345.063 M-0.000 350.666 C -0.000 350.935,0.107 351.089,0.237 351.008 C 0.545 350.818,0.545 350.178,0.237 350.178 C 0.107 350.178,-0.000 350.398,-0.000 350.666 M-0.000 353.381 C -0.000 353.734,0.102 353.939,0.237 353.855 C 0.543 353.666,0.543 353.095,0.237 352.906 C 0.102 352.823,-0.000 353.027,-0.000 353.381 M-0.000 357.335 C -0.000 358.199,0.104 358.167,0.327 357.236 C 0.420 356.849,0.385 356.584,0.242 356.584 C 0.109 356.584,-0.000 356.922,-0.000 357.335 M76.780 379.784 C 76.608 380.063,77.285 380.683,77.512 380.455 C 77.599 380.368,77.503 380.129,77.297 379.924 C 77.076 379.702,76.866 379.646,76.780 379.784 M66.495 388.736 C 65.393 389.507,63.534 395.492,64.396 395.492 C 65.071 395.492,67.616 390.340,67.616 388.972 C 67.616 388.500,67.013 388.372,66.495 388.736 M43.832 390.766 C 43.088 391.200,43.535 394.172,44.321 394.021 C 44.779 393.933,45.891 391.356,45.694 390.841 C 45.546 390.458,44.438 390.413,43.832 390.766 M79.715 394.648 C 79.715 395.135,80.206 395.375,80.438 395.000 C 80.545 394.827,80.580 394.599,80.516 394.495 C 80.317 394.173,79.715 394.287,79.715 394.648 M32.056 395.278 C 31.392 397.182,32.115 399.156,33.420 399.005 C 34.010 398.936,34.043 398.864,34.014 397.705 C 33.954 395.358,32.609 393.691,32.056 395.278 M50.059 397.894 C 48.313 398.590,48.033 399.687,48.969 402.166 C 50.196 405.422,50.322 405.529,51.645 404.464 C 52.143 404.063,52.897 403.587,53.321 403.407 C 54.326 402.978,54.305 402.600,53.145 400.320 C 51.856 397.785,51.343 397.382,50.059 397.894 M70.738 399.418 C 70.330 400.313,70.398 401.059,71.035 402.688 C 71.492 403.857,71.627 404.712,71.702 406.931 C 71.805 409.940,72.099 410.676,73.199 410.676 C 74.720 410.676,74.597 408.882,72.752 404.152 C 72.547 403.627,72.377 402.457,72.371 401.536 C 72.356 399.183,71.406 397.951,70.738 399.418 M61.318 399.968 C 60.064 400.732,59.409 401.773,58.363 404.663 C 57.803 406.209,57.019 408.143,56.620 408.961 C 55.916 410.405,55.904 410.481,56.228 411.571 C 56.411 412.188,56.619 413.741,56.691 415.023 L 56.821 417.354 57.447 416.684 C 58.813 415.223,59.754 412.478,59.919 409.470 C 60.009 407.816,60.165 407.234,60.955 405.600 C 63.007 401.353,63.170 398.839,61.318 399.968 M95.762 405.814 C 95.339 406.237,95.233 407.117,95.605 407.117 C 95.733 407.117,96.016 406.845,96.234 406.512 C 96.729 405.756,96.362 405.214,95.762 405.814 M87.989 406.554 C 88.442 406.871,88.514 407.080,88.397 407.740 C 88.320 408.180,88.193 408.900,88.115 409.340 C 88.020 409.882,88.113 410.397,88.405 410.941 C 88.822 411.720,88.903 412.749,89.022 418.861 C 89.041 419.850,88.859 420.389,87.929 422.102 C 85.069 427.366,84.589 423.901,86.119 409.046 C 86.413 406.192,86.778 405.705,87.989 406.554 M335.344 413.058 C 335.261 413.193,335.138 414.341,335.073 415.608 C 335.007 416.875,334.792 418.423,334.596 419.047 C 334.271 420.080,334.274 420.237,334.631 420.782 C 335.317 421.828,335.804 421.432,335.978 419.689 C 336.063 418.842,336.357 417.588,336.631 416.901 C 337.523 414.668,336.408 411.337,335.344 413.058 M50.031 414.243 C 49.537 414.523,49.242 415.294,48.649 417.859 C 48.370 419.065,47.754 420.733,47.186 421.821 C 46.075 423.951,46.077 424.559,47.199 425.221 L 47.917 425.646 48.398 424.863 C 48.663 424.433,48.986 423.654,49.117 423.132 C 49.481 421.685,50.398 419.032,51.111 417.364 C 51.955 415.389,51.308 413.518,50.031 414.243 M343.529 417.928 C 342.912 419.550,343.970 421.772,344.911 420.830 C 345.347 420.394,345.248 418.950,344.724 418.090 C 344.157 417.161,343.837 417.117,343.529 417.928 M227.215 424.459 C 225.160 427.672,225.128 433.468,227.176 431.544 C 227.997 430.772,228.321 429.220,228.164 426.804 C 227.997 424.229,227.751 423.621,227.215 424.459 M277.254 452.558 C 276.789 453.771,277.312 457.098,278.077 457.790 C 279.148 458.759,279.666 454.976,278.697 453.264 C 278.118 452.243,277.492 451.937,277.254 452.558 M228.788 455.658 C 228.201 456.554,229.481 460.498,230.358 460.498 C 230.696 460.498,231.389 458.420,231.413 457.332 C 231.458 455.295,229.743 454.201,228.788 455.658 M250.907 460.871 C 250.476 461.302,250.394 463.353,250.779 464.073 C 251.164 464.792,251.856 464.632,252.286 463.725 C 253.187 461.826,252.133 459.645,250.907 460.871 M251.499 469.009 C 250.837 470.247,251.395 472.888,252.348 473.026 C 252.912 473.107,253.050 472.854,253.239 471.383 C 253.496 469.383,252.226 467.650,251.499 469.009 M53.203 483.044 C 52.630 483.274,52.536 483.653,52.910 484.223 C 53.118 484.539,53.169 484.539,53.377 484.223 C 53.704 483.726,53.684 484.294,53.348 485.030 C 53.164 485.434,52.845 485.651,52.340 485.715 C 51.843 485.777,51.990 485.820,52.788 485.846 C 53.817 485.879,54.062 485.792,54.627 485.193 C 56.019 483.719,55.074 482.292,53.203 483.044 M65.348 485.533 C 64.909 485.878,64.919 485.892,65.581 485.830 C 65.962 485.794,66.318 485.632,66.372 485.469 C 66.506 485.059,65.904 485.097,65.348 485.533 " stroke="none" fill="#000000" fill-rule="evenodd"></path></g></svg>